<?xml version="1.0" encoding="UTF-8" standalone="no"?><svg xmlns="http://www.w3.org/2000/svg" xmlns:xlink="http://www.w3.org/1999/xlink" contentScriptType="application/ecmascript" contentStyleType="text/css" height="1398px" preserveAspectRatio="none" style="width:782px;height:1398px;" version="1.1" viewBox="0 0 782 1398" width="782px" zoomAndPan="magnify"><defs><filter height="300%" id="frfw3soz13l5" width="300%" x="-1" y="-1"><feGaussianBlur result="blurOut" stdDeviation="2.0"/><feColorMatrix in="blurOut" result="blurOut2" type="matrix" values="0 0 0 0 0 0 0 0 0 0 0 0 0 0 0 0 0 0 .4 0"/><feOffset dx="4.0" dy="4.0" in="blurOut2" result="blurOut3"/><feBlend in="SourceGraphic" in2="blurOut3" mode="normal"/></filter></defs><g><rect fill="none" height="26.2969" style="stroke:none;stroke-width:1.0;" width="738" x="19" y="47.2969"/><text fill="#000000" font-family="sans-serif" font-size="14" font-weight="bold" lengthAdjust="spacing" textLength="728" x="24" y="65.292">Txn Hash: 0xd0edab83203d630ff4036448f17450c119514e357bed40472db15612f08b2dbc</text><rect fill="#FFFFFF" filter="url(#frfw3soz13l5)" height="915.8438" style="stroke:#A80036;stroke-width:1.0;" width="10" x="213" y="243.4219"/><rect fill="#FFFFFF" filter="url(#frfw3soz13l5)" height="418.6563" style="stroke:#A80036;stroke-width:1.0;" width="10" x="413" y="321.9531"/><rect fill="#FFFFFF" filter="url(#frfw3soz13l5)" height="89.5313" style="stroke:#A80036;stroke-width:1.0;" width="10" x="418" y="565.5469"/><rect fill="#FFFFFF" filter="url(#frfw3soz13l5)" height="261.5938" style="stroke:#A80036;stroke-width:1.0;" width="10" x="413" y="819.1406"/><rect fill="#FFFFFF" filter="url(#frfw3soz13l5)" height="89.5313" style="stroke:#A80036;stroke-width:1.0;" width="10" x="418" y="905.6719"/><rect fill="#FFFFFF" filter="url(#frfw3soz13l5)" height="78.5313" style="stroke:#A80036;stroke-width:1.0;" width="10" x="719" y="400.4844"/><line style="stroke:#A80036;stroke-width:1.0;stroke-dasharray:5.0,5.0;" x1="23" x2="23" y1="162.8906" y2="1177.2656"/><line style="stroke:#A80036;stroke-width:1.0;stroke-dasharray:5.0,5.0;" x1="218" x2="218" y1="162.8906" y2="1177.2656"/><line style="stroke:#A80036;stroke-width:1.0;stroke-dasharray:5.0,5.0;" x1="417.5" x2="417.5" y1="162.8906" y2="1177.2656"/><line style="stroke:#A80036;stroke-width:1.0;stroke-dasharray:5.0,5.0;" x1="724" x2="724" y1="162.8906" y2="1177.2656"/><text fill="#000000" font-family="sans-serif" font-size="14" lengthAdjust="spacing" textLength="30" x="5" y="159.5889">EOA</text><ellipse cx="23" cy="89.5938" fill="#FEFECE" filter="url(#frfw3soz13l5)" rx="8" ry="8" style="stroke:#A80036;stroke-width:2.0;"/><path d="M23,97.5938 L23,124.5938 M10,105.5938 L36,105.5938 M23,124.5938 L10,139.5938 M23,124.5938 L36,139.5938 " fill="none" filter="url(#frfw3soz13l5)" style="stroke:#A80036;stroke-width:2.0;"/><text fill="#000000" font-family="sans-serif" font-size="14" lengthAdjust="spacing" textLength="30" x="5" y="1189.2607">EOA</text><ellipse cx="23" cy="1202.5625" fill="#FEFECE" filter="url(#frfw3soz13l5)" rx="8" ry="8" style="stroke:#A80036;stroke-width:2.0;"/><path d="M23,1210.5625 L23,1237.5625 M10,1218.5625 L36,1218.5625 M23,1237.5625 L10,1252.5625 M23,1237.5625 L36,1252.5625 " fill="none" filter="url(#frfw3soz13l5)" style="stroke:#A80036;stroke-width:2.0;"/><rect fill="#FEFECE" filter="url(#frfw3soz13l5)" height="30.2969" style="stroke:#A80036;stroke-width:1.5;" width="78" x="177" y="127.5938"/><text fill="#000000" font-family="sans-serif" font-size="14" lengthAdjust="spacing" textLength="64" x="184" y="147.5889">Entry_01</text><rect fill="#FEFECE" filter="url(#frfw3soz13l5)" height="30.2969" style="stroke:#A80036;stroke-width:1.5;" width="78" x="177" y="1176.2656"/><text fill="#000000" font-family="sans-serif" font-size="14" lengthAdjust="spacing" textLength="64" x="184" y="1196.2607">Entry_01</text><rect fill="#FEFECE" filter="url(#frfw3soz13l5)" height="30.2969" style="stroke:#A80036;stroke-width:1.5;" width="71" x="380.5" y="127.5938"/><text fill="#000000" font-family="sans-serif" font-size="14" lengthAdjust="spacing" textLength="57" x="387.5" y="147.5889">First_01</text><rect fill="#FEFECE" filter="url(#frfw3soz13l5)" height="30.2969" style="stroke:#A80036;stroke-width:1.5;" width="71" x="380.5" y="1176.2656"/><text fill="#000000" font-family="sans-serif" font-size="14" lengthAdjust="spacing" textLength="57" x="387.5" y="1196.2607">First_01</text><rect fill="#FEFECE" filter="url(#frfw3soz13l5)" height="30.2969" style="stroke:#A80036;stroke-width:1.5;" width="92" x="676" y="127.5938"/><text fill="#000000" font-family="sans-serif" font-size="14" lengthAdjust="spacing" textLength="78" x="683" y="147.5889">Second_01</text><rect fill="#FEFECE" filter="url(#frfw3soz13l5)" height="30.2969" style="stroke:#A80036;stroke-width:1.5;" width="92" x="676" y="1176.2656"/><text fill="#000000" font-family="sans-serif" font-size="14" lengthAdjust="spacing" textLength="78" x="683" y="1196.2607">Second_01</text><rect fill="#FFFFFF" filter="url(#frfw3soz13l5)" height="915.8438" style="stroke:#A80036;stroke-width:1.0;" width="10" x="213" y="243.4219"/><rect fill="#FFFFFF" filter="url(#frfw3soz13l5)" height="418.6563" style="stroke:#A80036;stroke-width:1.0;" width="10" x="413" y="321.9531"/><rect fill="#FFFFFF" filter="url(#frfw3soz13l5)" height="89.5313" style="stroke:#A80036;stroke-width:1.0;" width="10" x="418" y="565.5469"/><rect fill="#FFFFFF" filter="url(#frfw3soz13l5)" height="261.5938" style="stroke:#A80036;stroke-width:1.0;" width="10" x="413" y="819.1406"/><rect fill="#FFFFFF" filter="url(#frfw3soz13l5)" height="89.5313" style="stroke:#A80036;stroke-width:1.0;" width="10" x="418" y="905.6719"/><rect fill="#FFFFFF" filter="url(#frfw3soz13l5)" height="78.5313" style="stroke:#A80036;stroke-width:1.0;" width="10" x="719" y="400.4844"/><polygon fill="#A80036" points="201,239.4219,211,243.4219,201,247.4219,205,243.4219" style="stroke:#A80036;stroke-width:1.0;"/><line style="stroke:#A80036;stroke-width:1.0;" x1="23" x2="207" y1="243.4219" y2="243.4219"/><text fill="#000000" font-family="sans-serif" font-size="13" font-weight="bold" lengthAdjust="spacing" textLength="9" x="30" y="213.6567">1</text><text fill="#000000" font-family="sans-serif" font-size="13" lengthAdjust="spacing" textLength="87" x="43" y="188.9575">test_a_catch(</text><rect fill="#FEFECE" height="15.1328" style="stroke:none;stroke-width:1.0;" width="144" x="43" y="194.0234"/><text fill="#000000" font-family="sans-serif" font-size="13" font-weight="bold" lengthAdjust="spacing" textLength="34" x="48" y="206.0903">type</text><text fill="#000000" font-family="sans-serif" font-size="13" font-weight="bold" lengthAdjust="spacing" textLength="41" x="92" y="206.0903">name</text><text fill="#000000" font-family="sans-serif" font-size="13" font-weight="bold" lengthAdjust="spacing" textLength="39" x="143" y="206.0903">value</text><text fill="#000000" font-family="sans-serif" font-size="13" lengthAdjust="spacing" textLength="24" x="47" y="221.2231">uint</text><text fill="#000000" font-family="sans-serif" font-size="13" lengthAdjust="spacing" textLength="8" x="91" y="221.2231">x</text><text fill="#000000" font-family="sans-serif" font-size="13" lengthAdjust="spacing" textLength="8" x="142" y="221.2231">3</text><line style="stroke:#FEFECE;stroke-width:1.0;" x1="43" x2="187" y1="194.0234" y2="194.0234"/><line style="stroke:#FEFECE;stroke-width:1.0;" x1="43" x2="187" y1="209.1563" y2="209.1563"/><line style="stroke:#FEFECE;stroke-width:1.0;" x1="43" x2="187" y1="224.2891" y2="224.2891"/><line style="stroke:#FEFECE;stroke-width:1.0;" x1="43" x2="43" y1="194.0234" y2="224.2891"/><line style="stroke:#FEFECE;stroke-width:1.0;" x1="87" x2="87" y1="194.0234" y2="224.2891"/><line style="stroke:#FEFECE;stroke-width:1.0;" x1="138" x2="138" y1="194.0234" y2="224.2891"/><line style="stroke:#FEFECE;stroke-width:1.0;" x1="187" x2="187" y1="194.0234" y2="224.2891"/><text fill="#000000" font-family="sans-serif" font-size="13" lengthAdjust="spacing" textLength="93" x="43" y="238.356">) { 0.0 GWEI }</text><polygon fill="#A80036" points="401,317.9531,411,321.9531,401,325.9531,405,321.9531" style="stroke:#A80036;stroke-width:1.0;"/><line style="stroke:#A80036;stroke-width:1.0;" x1="223" x2="407" y1="321.9531" y2="321.9531"/><text fill="#000000" font-family="sans-serif" font-size="13" font-weight="bold" lengthAdjust="spacing" textLength="9" x="230" y="292.188">2</text><text fill="#000000" font-family="sans-serif" font-size="13" lengthAdjust="spacing" textLength="86" x="243" y="267.4888">catch_revert(</text><rect fill="#FEFECE" height="15.1328" style="stroke:none;stroke-width:1.0;" width="144" x="243" y="272.5547"/><text fill="#000000" font-family="sans-serif" font-size="13" font-weight="bold" lengthAdjust="spacing" textLength="34" x="248" y="284.6216">type</text><text fill="#000000" font-family="sans-serif" font-size="13" font-weight="bold" lengthAdjust="spacing" textLength="41" x="292" y="284.6216">name</text><text fill="#000000" font-family="sans-serif" font-size="13" font-weight="bold" lengthAdjust="spacing" textLength="39" x="343" y="284.6216">value</text><text fill="#000000" font-family="sans-serif" font-size="13" lengthAdjust="spacing" textLength="24" x="247" y="299.7544">uint</text><text fill="#000000" font-family="sans-serif" font-size="13" lengthAdjust="spacing" textLength="8" x="291" y="299.7544">x</text><text fill="#000000" font-family="sans-serif" font-size="13" lengthAdjust="spacing" textLength="8" x="342" y="299.7544">3</text><line style="stroke:#FEFECE;stroke-width:1.0;" x1="243" x2="387" y1="272.5547" y2="272.5547"/><line style="stroke:#FEFECE;stroke-width:1.0;" x1="243" x2="387" y1="287.6875" y2="287.6875"/><line style="stroke:#FEFECE;stroke-width:1.0;" x1="243" x2="387" y1="302.8203" y2="302.8203"/><line style="stroke:#FEFECE;stroke-width:1.0;" x1="243" x2="243" y1="272.5547" y2="302.8203"/><line style="stroke:#FEFECE;stroke-width:1.0;" x1="287" x2="287" y1="272.5547" y2="302.8203"/><line style="stroke:#FEFECE;stroke-width:1.0;" x1="338" x2="338" y1="272.5547" y2="302.8203"/><line style="stroke:#FEFECE;stroke-width:1.0;" x1="387" x2="387" y1="272.5547" y2="302.8203"/><text fill="#000000" font-family="sans-serif" font-size="13" lengthAdjust="spacing" textLength="93" x="243" y="316.8872">) { 0.0 GWEI }</text><polygon fill="#A80036" points="707,396.4844,717,400.4844,707,404.4844,711,400.4844" style="stroke:#A80036;stroke-width:1.0;"/><line style="stroke:#A80036;stroke-width:1.0;" x1="423" x2="713" y1="400.4844" y2="400.4844"/><text fill="#000000" font-family="sans-serif" font-size="13" font-weight="bold" lengthAdjust="spacing" textLength="8" x="430" y="370.7192">3</text><text fill="#000000" font-family="sans-serif" font-size="13" lengthAdjust="spacing" textLength="94" x="442" y="346.02">double_revert(</text><rect fill="#FEFECE" height="15.1328" style="stroke:none;stroke-width:1.0;" width="144" x="442" y="351.0859"/><text fill="#000000" font-family="sans-serif" font-size="13" font-weight="bold" lengthAdjust="spacing" textLength="34" x="447" y="363.1528">type</text><text fill="#000000" font-family="sans-serif" font-size="13" font-weight="bold" lengthAdjust="spacing" textLength="41" x="491" y="363.1528">name</text><text fill="#000000" font-family="sans-serif" font-size="13" font-weight="bold" lengthAdjust="spacing" textLength="39" x="542" y="363.1528">value</text><text fill="#000000" font-family="sans-serif" font-size="13" lengthAdjust="spacing" textLength="24" x="446" y="378.2856">uint</text><text fill="#000000" font-family="sans-serif" font-size="13" lengthAdjust="spacing" textLength="8" x="490" y="378.2856">x</text><text fill="#000000" font-family="sans-serif" font-size="13" lengthAdjust="spacing" textLength="8" x="541" y="378.2856">3</text><line style="stroke:#FEFECE;stroke-width:1.0;" x1="442" x2="586" y1="351.0859" y2="351.0859"/><line style="stroke:#FEFECE;stroke-width:1.0;" x1="442" x2="586" y1="366.2188" y2="366.2188"/><line style="stroke:#FEFECE;stroke-width:1.0;" x1="442" x2="586" y1="381.3516" y2="381.3516"/><line style="stroke:#FEFECE;stroke-width:1.0;" x1="442" x2="442" y1="351.0859" y2="381.3516"/><line style="stroke:#FEFECE;stroke-width:1.0;" x1="486" x2="486" y1="351.0859" y2="381.3516"/><line style="stroke:#FEFECE;stroke-width:1.0;" x1="537" x2="537" y1="351.0859" y2="381.3516"/><line style="stroke:#FEFECE;stroke-width:1.0;" x1="586" x2="586" y1="351.0859" y2="381.3516"/><text fill="#000000" font-family="sans-serif" font-size="13" lengthAdjust="spacing" textLength="93" x="442" y="395.4185">) { 0.0 GWEI }</text><polygon fill="#FF0000" points="434,475.0156,424,479.0156,434,483.0156,430,479.0156" style="stroke:#FF0000;stroke-width:1.0;"/><line style="stroke:#FF0000;stroke-width:2.0;" x1="706" x2="716" y1="474.0156" y2="484.0156"/><line style="stroke:#FF0000;stroke-width:2.0;" x1="706" x2="716" y1="484.0156" y2="474.0156"/><line style="stroke:#FF0000;stroke-width:1.0;stroke-dasharray:2.0,2.0;" x1="428" x2="711" y1="479.0156" y2="479.0156"/><text fill="#000000" font-family="sans-serif" font-size="13" font-weight="bold" lengthAdjust="spacing" textLength="9" x="440" y="449.2505">4</text><path d="M457.3475,415.7005 C457.2825,415.7005 457.2392,415.7439 457.2067,415.798 L454.0217,423.1755 C454,423.2297 453.9892,423.3164 453.9892,423.3814 L453.9892,424.2589 C453.9892,424.313 454.0325,424.3564 454.0867,424.3564 L461.4642,424.3564 C461.5183,424.3564 461.5617,424.313 461.5617,424.2589 L461.5617,423.3814 C461.5617,423.3272 461.5508,423.2297 461.5292,423.1755 L458.3442,415.798 C458.3225,415.7439 458.2683,415.7005 458.2033,415.7005 L457.3258,415.7005 M457.2283,418.9505 L458.3117,418.9505 L458.3117,421.1172 L457.2283,421.1172 L457.2283,418.9505 M457.2283,422.2005 L458.3117,422.2005 L458.3117,423.2839 L457.2283,423.2839 L457.2283,422.2005 " fill="#000000" style="stroke:;stroke-width:0.0;stroke-dasharray:;"/><text fill="#000000" font-family="sans-serif" font-size="13" lengthAdjust="spacing" textLength="0" x="467.6667" y="424.5513"/><text fill="#FF0000" font-family="sans-serif" font-size="13" font-weight="bold" lengthAdjust="spacing" textLength="65" x="467.6667" y="424.5513">REVERT!</text><text fill="#000000" font-family="sans-serif" font-size="13" lengthAdjust="spacing" textLength="5" x="536.6667" y="424.5513">(</text><rect fill="#FEFECE" height="15.1328" style="stroke:none;stroke-width:1.0;" width="259" x="453" y="429.6172"/><text fill="#000000" font-family="sans-serif" font-size="13" lengthAdjust="spacing" textLength="36" x="457" y="441.6841">string</text><text fill="#000000" font-family="sans-serif" font-size="13" lengthAdjust="spacing" textLength="0" x="505" y="441.6841"/><text fill="#000000" font-family="sans-serif" font-size="13" lengthAdjust="spacing" textLength="199" x="509" y="441.6841">'Rats! Conditions are imperfect</text><rect fill="#FEFECE" height="15.1328" style="stroke:none;stroke-width:1.0;" width="259" x="453" y="444.75"/><text fill="#000000" font-family="sans-serif" font-size="13" lengthAdjust="spacing" textLength="0" x="461" y="456.8169"/><text fill="#000000" font-family="sans-serif" font-size="13" lengthAdjust="spacing" textLength="0" x="505" y="456.8169"/><text fill="#000000" font-family="sans-serif" font-size="13" lengthAdjust="spacing" textLength="109" x="509" y="456.8169">Im a bit sleepy...'</text><line style="stroke:#FEFECE;stroke-width:1.0;" x1="453" x2="712" y1="429.6172" y2="429.6172"/><line style="stroke:#FEFECE;stroke-width:1.0;" x1="453" x2="712" y1="444.75" y2="444.75"/><line style="stroke:#FEFECE;stroke-width:1.0;" x1="453" x2="712" y1="459.8828" y2="459.8828"/><line style="stroke:#FEFECE;stroke-width:1.0;" x1="453" x2="453" y1="429.6172" y2="459.8828"/><line style="stroke:#FEFECE;stroke-width:1.0;" x1="497" x2="497" y1="429.6172" y2="459.8828"/><line style="stroke:#FEFECE;stroke-width:1.0;" x1="505" x2="505" y1="429.6172" y2="459.8828"/><line style="stroke:#FEFECE;stroke-width:1.0;" x1="712" x2="712" y1="429.6172" y2="459.8828"/><text fill="#000000" font-family="sans-serif" font-size="13" lengthAdjust="spacing" textLength="5" x="453" y="473.9497">)</text><line style="stroke:#A80036;stroke-width:1.0;" x1="423" x2="470" y1="552.5469" y2="552.5469"/><line style="stroke:#A80036;stroke-width:1.0;" x1="470" x2="470" y1="552.5469" y2="565.5469"/><line style="stroke:#A80036;stroke-width:1.0;" x1="429" x2="470" y1="565.5469" y2="565.5469"/><polygon fill="#A80036" points="439,561.5469,429,565.5469,439,569.5469,435,565.5469" style="stroke:#A80036;stroke-width:1.0;"/><text fill="#000000" font-family="sans-serif" font-size="13" font-weight="bold" lengthAdjust="spacing" textLength="9" x="435" y="522.7817">5</text><text fill="#000000" font-family="sans-serif" font-size="13" lengthAdjust="spacing" textLength="53" x="448" y="498.0825">self_inc(</text><rect fill="#FEFECE" height="15.1328" style="stroke:none;stroke-width:1.0;" width="144" x="448" y="503.1484"/><text fill="#000000" font-family="sans-serif" font-size="13" font-weight="bold" lengthAdjust="spacing" textLength="34" x="453" y="515.2153">type</text><text fill="#000000" font-family="sans-serif" font-size="13" font-weight="bold" lengthAdjust="spacing" textLength="41" x="497" y="515.2153">name</text><text fill="#000000" font-family="sans-serif" font-size="13" font-weight="bold" lengthAdjust="spacing" textLength="39" x="548" y="515.2153">value</text><text fill="#000000" font-family="sans-serif" font-size="13" lengthAdjust="spacing" textLength="24" x="452" y="530.3481">uint</text><text fill="#000000" font-family="sans-serif" font-size="13" lengthAdjust="spacing" textLength="8" x="496" y="530.3481">x</text><text fill="#000000" font-family="sans-serif" font-size="13" lengthAdjust="spacing" textLength="8" x="547" y="530.3481">3</text><line style="stroke:#FEFECE;stroke-width:1.0;" x1="448" x2="592" y1="503.1484" y2="503.1484"/><line style="stroke:#FEFECE;stroke-width:1.0;" x1="448" x2="592" y1="518.2813" y2="518.2813"/><line style="stroke:#FEFECE;stroke-width:1.0;" x1="448" x2="592" y1="533.4141" y2="533.4141"/><line style="stroke:#FEFECE;stroke-width:1.0;" x1="448" x2="448" y1="503.1484" y2="533.4141"/><line style="stroke:#FEFECE;stroke-width:1.0;" x1="492" x2="492" y1="503.1484" y2="533.4141"/><line style="stroke:#FEFECE;stroke-width:1.0;" x1="543" x2="543" y1="503.1484" y2="533.4141"/><line style="stroke:#FEFECE;stroke-width:1.0;" x1="592" x2="592" y1="503.1484" y2="533.4141"/><text fill="#000000" font-family="sans-serif" font-size="13" lengthAdjust="spacing" textLength="93" x="448" y="547.481">) { 0.0 GWEI }</text><line style="stroke:#A80036;stroke-width:1.0;" x1="428" x2="470" y1="654.0781" y2="654.0781"/><line style="stroke:#A80036;stroke-width:1.0;" x1="470" x2="470" y1="654.0781" y2="667.0781"/><line style="stroke:#A80036;stroke-width:1.0;" x1="423" x2="470" y1="667.0781" y2="667.0781"/><polygon fill="#A80036" points="433,663.0781,423,667.0781,433,671.0781,429,667.0781" style="stroke:#A80036;stroke-width:1.0;"/><text fill="#000000" font-family="sans-serif" font-size="13" font-weight="bold" lengthAdjust="spacing" textLength="9" x="435" y="624.313">6</text><text fill="#000000" font-family="sans-serif" font-size="13" lengthAdjust="spacing" textLength="52" x="448" y="599.6138">Return (</text><rect fill="#FEFECE" height="15.1328" style="stroke:none;stroke-width:1.0;" width="144" x="448" y="604.6797"/><text fill="#000000" font-family="sans-serif" font-size="13" font-weight="bold" lengthAdjust="spacing" textLength="34" x="453" y="616.7466">type</text><text fill="#000000" font-family="sans-serif" font-size="13" font-weight="bold" lengthAdjust="spacing" textLength="41" x="497" y="616.7466">name</text><text fill="#000000" font-family="sans-serif" font-size="13" font-weight="bold" lengthAdjust="spacing" textLength="39" x="548" y="616.7466">value</text><text fill="#000000" font-family="sans-serif" font-size="13" lengthAdjust="spacing" textLength="24" x="452" y="631.8794">uint</text><text fill="#000000" font-family="sans-serif" font-size="13" lengthAdjust="spacing" textLength="0" x="500" y="631.8794"/><text fill="#000000" font-family="sans-serif" font-size="13" lengthAdjust="spacing" textLength="8" x="547" y="631.8794">4</text><line style="stroke:#FEFECE;stroke-width:1.0;" x1="448" x2="592" y1="604.6797" y2="604.6797"/><line style="stroke:#FEFECE;stroke-width:1.0;" x1="448" x2="592" y1="619.8125" y2="619.8125"/><line style="stroke:#FEFECE;stroke-width:1.0;" x1="448" x2="592" y1="634.9453" y2="634.9453"/><line style="stroke:#FEFECE;stroke-width:1.0;" x1="448" x2="448" y1="604.6797" y2="634.9453"/><line style="stroke:#FEFECE;stroke-width:1.0;" x1="492" x2="492" y1="604.6797" y2="634.9453"/><line style="stroke:#FEFECE;stroke-width:1.0;" x1="543" x2="543" y1="604.6797" y2="634.9453"/><line style="stroke:#FEFECE;stroke-width:1.0;" x1="592" x2="592" y1="604.6797" y2="634.9453"/><text fill="#000000" font-family="sans-serif" font-size="13" lengthAdjust="spacing" textLength="5" x="448" y="649.0122">)</text><polygon fill="#A80036" points="234,736.6094,224,740.6094,234,744.6094,230,740.6094" style="stroke:#A80036;stroke-width:1.0;"/><line style="stroke:#A80036;stroke-width:1.0;" x1="228" x2="417" y1="740.6094" y2="740.6094"/><text fill="#000000" font-family="sans-serif" font-size="13" font-weight="bold" lengthAdjust="spacing" textLength="9" x="240" y="710.8442">7</text><text fill="#000000" font-family="sans-serif" font-size="13" lengthAdjust="spacing" textLength="52" x="253" y="686.145">Return (</text><rect fill="#FEFECE" height="15.1328" style="stroke:none;stroke-width:1.0;" width="144" x="253" y="691.2109"/><text fill="#000000" font-family="sans-serif" font-size="13" font-weight="bold" lengthAdjust="spacing" textLength="34" x="258" y="703.2778">type</text><text fill="#000000" font-family="sans-serif" font-size="13" font-weight="bold" lengthAdjust="spacing" textLength="41" x="302" y="703.2778">name</text><text fill="#000000" font-family="sans-serif" font-size="13" font-weight="bold" lengthAdjust="spacing" textLength="39" x="353" y="703.2778">value</text><text fill="#000000" font-family="sans-serif" font-size="13" lengthAdjust="spacing" textLength="24" x="257" y="718.4106">uint</text><text fill="#000000" font-family="sans-serif" font-size="13" lengthAdjust="spacing" textLength="0" x="305" y="718.4106"/><text fill="#000000" font-family="sans-serif" font-size="13" lengthAdjust="spacing" textLength="8" x="352" y="718.4106">4</text><line style="stroke:#FEFECE;stroke-width:1.0;" x1="253" x2="397" y1="691.2109" y2="691.2109"/><line style="stroke:#FEFECE;stroke-width:1.0;" x1="253" x2="397" y1="706.3438" y2="706.3438"/><line style="stroke:#FEFECE;stroke-width:1.0;" x1="253" x2="397" y1="721.4766" y2="721.4766"/><line style="stroke:#FEFECE;stroke-width:1.0;" x1="253" x2="253" y1="691.2109" y2="721.4766"/><line style="stroke:#FEFECE;stroke-width:1.0;" x1="297" x2="297" y1="691.2109" y2="721.4766"/><line style="stroke:#FEFECE;stroke-width:1.0;" x1="348" x2="348" y1="691.2109" y2="721.4766"/><line style="stroke:#FEFECE;stroke-width:1.0;" x1="397" x2="397" y1="691.2109" y2="721.4766"/><text fill="#000000" font-family="sans-serif" font-size="13" lengthAdjust="spacing" textLength="5" x="253" y="735.5435">)</text><polygon fill="#A80036" points="401,815.1406,411,819.1406,401,823.1406,405,819.1406" style="stroke:#A80036;stroke-width:1.0;"/><line style="stroke:#A80036;stroke-width:1.0;" x1="223" x2="407" y1="819.1406" y2="819.1406"/><text fill="#000000" font-family="sans-serif" font-size="13" font-weight="bold" lengthAdjust="spacing" textLength="9" x="230" y="789.3755">8</text><text fill="#000000" font-family="sans-serif" font-size="13" lengthAdjust="spacing" textLength="23" x="243" y="764.6763">inc(</text><rect fill="#FEFECE" height="15.1328" style="stroke:none;stroke-width:1.0;" width="144" x="243" y="769.7422"/><text fill="#000000" font-family="sans-serif" font-size="13" font-weight="bold" lengthAdjust="spacing" textLength="34" x="248" y="781.8091">type</text><text fill="#000000" font-family="sans-serif" font-size="13" font-weight="bold" lengthAdjust="spacing" textLength="41" x="292" y="781.8091">name</text><text fill="#000000" font-family="sans-serif" font-size="13" font-weight="bold" lengthAdjust="spacing" textLength="39" x="343" y="781.8091">value</text><text fill="#000000" font-family="sans-serif" font-size="13" lengthAdjust="spacing" textLength="24" x="247" y="796.9419">uint</text><text fill="#000000" font-family="sans-serif" font-size="13" lengthAdjust="spacing" textLength="8" x="291" y="796.9419">x</text><text fill="#000000" font-family="sans-serif" font-size="13" lengthAdjust="spacing" textLength="8" x="342" y="796.9419">4</text><line style="stroke:#FEFECE;stroke-width:1.0;" x1="243" x2="387" y1="769.7422" y2="769.7422"/><line style="stroke:#FEFECE;stroke-width:1.0;" x1="243" x2="387" y1="784.875" y2="784.875"/><line style="stroke:#FEFECE;stroke-width:1.0;" x1="243" x2="387" y1="800.0078" y2="800.0078"/><line style="stroke:#FEFECE;stroke-width:1.0;" x1="243" x2="243" y1="769.7422" y2="800.0078"/><line style="stroke:#FEFECE;stroke-width:1.0;" x1="287" x2="287" y1="769.7422" y2="800.0078"/><line style="stroke:#FEFECE;stroke-width:1.0;" x1="338" x2="338" y1="769.7422" y2="800.0078"/><line style="stroke:#FEFECE;stroke-width:1.0;" x1="387" x2="387" y1="769.7422" y2="800.0078"/><text fill="#000000" font-family="sans-serif" font-size="13" lengthAdjust="spacing" textLength="93" x="243" y="814.0747">) { 0.0 GWEI }</text><line style="stroke:#A80036;stroke-width:1.0;" x1="423" x2="470" y1="892.6719" y2="892.6719"/><line style="stroke:#A80036;stroke-width:1.0;" x1="470" x2="470" y1="892.6719" y2="905.6719"/><line style="stroke:#A80036;stroke-width:1.0;" x1="429" x2="470" y1="905.6719" y2="905.6719"/><polygon fill="#A80036" points="439,901.6719,429,905.6719,439,909.6719,435,905.6719" style="stroke:#A80036;stroke-width:1.0;"/><text fill="#000000" font-family="sans-serif" font-size="13" font-weight="bold" lengthAdjust="spacing" textLength="9" x="435" y="862.9067">9</text><text fill="#000000" font-family="sans-serif" font-size="13" lengthAdjust="spacing" textLength="53" x="448" y="838.2075">self_inc(</text><rect fill="#FEFECE" height="15.1328" style="stroke:none;stroke-width:1.0;" width="144" x="448" y="843.2734"/><text fill="#000000" font-family="sans-serif" font-size="13" font-weight="bold" lengthAdjust="spacing" textLength="34" x="453" y="855.3403">type</text><text fill="#000000" font-family="sans-serif" font-size="13" font-weight="bold" lengthAdjust="spacing" textLength="41" x="497" y="855.3403">name</text><text fill="#000000" font-family="sans-serif" font-size="13" font-weight="bold" lengthAdjust="spacing" textLength="39" x="548" y="855.3403">value</text><text fill="#000000" font-family="sans-serif" font-size="13" lengthAdjust="spacing" textLength="24" x="452" y="870.4731">uint</text><text fill="#000000" font-family="sans-serif" font-size="13" lengthAdjust="spacing" textLength="8" x="496" y="870.4731">x</text><text fill="#000000" font-family="sans-serif" font-size="13" lengthAdjust="spacing" textLength="8" x="547" y="870.4731">4</text><line style="stroke:#FEFECE;stroke-width:1.0;" x1="448" x2="592" y1="843.2734" y2="843.2734"/><line style="stroke:#FEFECE;stroke-width:1.0;" x1="448" x2="592" y1="858.4063" y2="858.4063"/><line style="stroke:#FEFECE;stroke-width:1.0;" x1="448" x2="592" y1="873.5391" y2="873.5391"/><line style="stroke:#FEFECE;stroke-width:1.0;" x1="448" x2="448" y1="843.2734" y2="873.5391"/><line style="stroke:#FEFECE;stroke-width:1.0;" x1="492" x2="492" y1="843.2734" y2="873.5391"/><line style="stroke:#FEFECE;stroke-width:1.0;" x1="543" x2="543" y1="843.2734" y2="873.5391"/><line style="stroke:#FEFECE;stroke-width:1.0;" x1="592" x2="592" y1="843.2734" y2="873.5391"/><text fill="#000000" font-family="sans-serif" font-size="13" lengthAdjust="spacing" textLength="93" x="448" y="887.606">) { 0.0 GWEI }</text><line style="stroke:#A80036;stroke-width:1.0;" x1="428" x2="470" y1="994.2031" y2="994.2031"/><line style="stroke:#A80036;stroke-width:1.0;" x1="470" x2="470" y1="994.2031" y2="1007.2031"/><line style="stroke:#A80036;stroke-width:1.0;" x1="423" x2="470" y1="1007.2031" y2="1007.2031"/><polygon fill="#A80036" points="433,1003.2031,423,1007.2031,433,1011.2031,429,1007.2031" style="stroke:#A80036;stroke-width:1.0;"/><text fill="#000000" font-family="sans-serif" font-size="13" font-weight="bold" lengthAdjust="spacing" textLength="19" x="435" y="964.438">10</text><text fill="#000000" font-family="sans-serif" font-size="13" lengthAdjust="spacing" textLength="52" x="458" y="939.7388">Return (</text><rect fill="#FEFECE" height="15.1328" style="stroke:none;stroke-width:1.0;" width="144" x="458" y="944.8047"/><text fill="#000000" font-family="sans-serif" font-size="13" font-weight="bold" lengthAdjust="spacing" textLength="34" x="463" y="956.8716">type</text><text fill="#000000" font-family="sans-serif" font-size="13" font-weight="bold" lengthAdjust="spacing" textLength="41" x="507" y="956.8716">name</text><text fill="#000000" font-family="sans-serif" font-size="13" font-weight="bold" lengthAdjust="spacing" textLength="39" x="558" y="956.8716">value</text><text fill="#000000" font-family="sans-serif" font-size="13" lengthAdjust="spacing" textLength="24" x="462" y="972.0044">uint</text><text fill="#000000" font-family="sans-serif" font-size="13" lengthAdjust="spacing" textLength="0" x="510" y="972.0044"/><text fill="#000000" font-family="sans-serif" font-size="13" lengthAdjust="spacing" textLength="8" x="557" y="972.0044">5</text><line style="stroke:#FEFECE;stroke-width:1.0;" x1="458" x2="602" y1="944.8047" y2="944.8047"/><line style="stroke:#FEFECE;stroke-width:1.0;" x1="458" x2="602" y1="959.9375" y2="959.9375"/><line style="stroke:#FEFECE;stroke-width:1.0;" x1="458" x2="602" y1="975.0703" y2="975.0703"/><line style="stroke:#FEFECE;stroke-width:1.0;" x1="458" x2="458" y1="944.8047" y2="975.0703"/><line style="stroke:#FEFECE;stroke-width:1.0;" x1="502" x2="502" y1="944.8047" y2="975.0703"/><line style="stroke:#FEFECE;stroke-width:1.0;" x1="553" x2="553" y1="944.8047" y2="975.0703"/><line style="stroke:#FEFECE;stroke-width:1.0;" x1="602" x2="602" y1="944.8047" y2="975.0703"/><text fill="#000000" font-family="sans-serif" font-size="13" lengthAdjust="spacing" textLength="5" x="458" y="989.1372">)</text><polygon fill="#A80036" points="234,1076.7344,224,1080.7344,234,1084.7344,230,1080.7344" style="stroke:#A80036;stroke-width:1.0;"/><line style="stroke:#A80036;stroke-width:1.0;" x1="228" x2="417" y1="1080.7344" y2="1080.7344"/><text fill="#000000" font-family="sans-serif" font-size="13" font-weight="bold" lengthAdjust="spacing" textLength="18" x="240" y="1050.9692">11</text><text fill="#000000" font-family="sans-serif" font-size="13" lengthAdjust="spacing" textLength="52" x="262" y="1026.27">Return (</text><rect fill="#FEFECE" height="15.1328" style="stroke:none;stroke-width:1.0;" width="144" x="262" y="1031.3359"/><text fill="#000000" font-family="sans-serif" font-size="13" font-weight="bold" lengthAdjust="spacing" textLength="34" x="267" y="1043.4028">type</text><text fill="#000000" font-family="sans-serif" font-size="13" font-weight="bold" lengthAdjust="spacing" textLength="41" x="311" y="1043.4028">name</text><text fill="#000000" font-family="sans-serif" font-size="13" font-weight="bold" lengthAdjust="spacing" textLength="39" x="362" y="1043.4028">value</text><text fill="#000000" font-family="sans-serif" font-size="13" lengthAdjust="spacing" textLength="24" x="266" y="1058.5356">uint</text><text fill="#000000" font-family="sans-serif" font-size="13" lengthAdjust="spacing" textLength="0" x="314" y="1058.5356"/><text fill="#000000" font-family="sans-serif" font-size="13" lengthAdjust="spacing" textLength="8" x="361" y="1058.5356">5</text><line style="stroke:#FEFECE;stroke-width:1.0;" x1="262" x2="406" y1="1031.3359" y2="1031.3359"/><line style="stroke:#FEFECE;stroke-width:1.0;" x1="262" x2="406" y1="1046.4688" y2="1046.4688"/><line style="stroke:#FEFECE;stroke-width:1.0;" x1="262" x2="406" y1="1061.6016" y2="1061.6016"/><line style="stroke:#FEFECE;stroke-width:1.0;" x1="262" x2="262" y1="1031.3359" y2="1061.6016"/><line style="stroke:#FEFECE;stroke-width:1.0;" x1="306" x2="306" y1="1031.3359" y2="1061.6016"/><line style="stroke:#FEFECE;stroke-width:1.0;" x1="357" x2="357" y1="1031.3359" y2="1061.6016"/><line style="stroke:#FEFECE;stroke-width:1.0;" x1="406" x2="406" y1="1031.3359" y2="1061.6016"/><text fill="#000000" font-family="sans-serif" font-size="13" lengthAdjust="spacing" textLength="5" x="262" y="1075.6685">)</text><polygon fill="#A80036" points="34,1155.2656,24,1159.2656,34,1163.2656,30,1159.2656" style="stroke:#A80036;stroke-width:1.0;"/><line style="stroke:#A80036;stroke-width:1.0;" x1="28" x2="217" y1="1159.2656" y2="1159.2656"/><text fill="#000000" font-family="sans-serif" font-size="13" font-weight="bold" lengthAdjust="spacing" textLength="18" x="40" y="1129.5005">12</text><text fill="#000000" font-family="sans-serif" font-size="13" lengthAdjust="spacing" textLength="52" x="62" y="1104.8013">Return (</text><rect fill="#FEFECE" height="15.1328" style="stroke:none;stroke-width:1.0;" width="144" x="62" y="1109.8672"/><text fill="#000000" font-family="sans-serif" font-size="13" font-weight="bold" lengthAdjust="spacing" textLength="34" x="67" y="1121.9341">type</text><text fill="#000000" font-family="sans-serif" font-size="13" font-weight="bold" lengthAdjust="spacing" textLength="41" x="111" y="1121.9341">name</text><text fill="#000000" font-family="sans-serif" font-size="13" font-weight="bold" lengthAdjust="spacing" textLength="39" x="162" y="1121.9341">value</text><text fill="#000000" font-family="sans-serif" font-size="13" lengthAdjust="spacing" textLength="24" x="66" y="1137.0669">uint</text><text fill="#000000" font-family="sans-serif" font-size="13" lengthAdjust="spacing" textLength="0" x="114" y="1137.0669"/><text fill="#000000" font-family="sans-serif" font-size="13" lengthAdjust="spacing" textLength="8" x="161" y="1137.0669">5</text><line style="stroke:#FEFECE;stroke-width:1.0;" x1="62" x2="206" y1="1109.8672" y2="1109.8672"/><line style="stroke:#FEFECE;stroke-width:1.0;" x1="62" x2="206" y1="1125" y2="1125"/><line style="stroke:#FEFECE;stroke-width:1.0;" x1="62" x2="206" y1="1140.1328" y2="1140.1328"/><line style="stroke:#FEFECE;stroke-width:1.0;" x1="62" x2="62" y1="1109.8672" y2="1140.1328"/><line style="stroke:#FEFECE;stroke-width:1.0;" x1="106" x2="106" y1="1109.8672" y2="1140.1328"/><line style="stroke:#FEFECE;stroke-width:1.0;" x1="157" x2="157" y1="1109.8672" y2="1140.1328"/><line style="stroke:#FEFECE;stroke-width:1.0;" x1="206" x2="206" y1="1109.8672" y2="1140.1328"/><text fill="#000000" font-family="sans-serif" font-size="13" lengthAdjust="spacing" textLength="5" x="62" y="1154.1997">)</text><rect fill="none" height="36.2969" style="stroke:none;stroke-width:1.0;" width="150" x="0" y="5"/><text fill="#800080" font-family="sans-serif" font-size="14" lengthAdjust="spacing" textLength="130" x="10" y="27.9951">Insights by Truffle</text><rect fill="#DDDDDD" height="113.7813" rx="7.5" ry="7.5" style="stroke:#000000;stroke-width:1.0;" width="679" x="48.5" y="1268.5625"/><text fill="#000000" font-family="sans-serif" font-size="14" lengthAdjust="spacing" textLength="132" x="54.5" y="1287.5576">Participant details</text><rect fill="#FEFECE" height="16.2969" style="stroke:none;stroke-width:1.0;" width="667" x="54.5" y="1292.8594"/><text fill="#000000" font-family="sans-serif" font-size="14" font-weight="bold" lengthAdjust="spacing" textLength="40" x="59.5" y="1305.8545">Alias</text><text fill="#000000" font-family="sans-serif" font-size="14" font-weight="bold" lengthAdjust="spacing" textLength="121" x="145.5" y="1305.8545">Contract name</text><text fill="#000000" font-family="sans-serif" font-size="14" font-weight="bold" lengthAdjust="spacing" textLength="65" x="341.5" y="1305.8545">Address</text><rect fill="#FEFECE" height="16.2969" style="stroke:none;stroke-width:1.0;" width="667" x="54.5" y="1309.1563"/><text fill="#000000" font-family="sans-serif" font-size="14" lengthAdjust="spacing" textLength="30" x="58.5" y="1322.1514">EOA</text><text fill="#000000" font-family="sans-serif" font-size="14" lengthAdjust="spacing" textLength="188" x="144.5" y="1322.1514">Externally Owned Account</text><text fill="#000000" font-family="sans-serif" font-size="14" lengthAdjust="spacing" textLength="377" x="340.5" y="1322.1514">0x89455D7DA74AB68e95223838755755dFF38e5BDB</text><rect fill="#FEFECE" height="16.2969" style="stroke:none;stroke-width:1.0;" width="667" x="54.5" y="1325.4531"/><text fill="#000000" font-family="sans-serif" font-size="14" lengthAdjust="spacing" textLength="64" x="58.5" y="1338.4482">Entry_01</text><text fill="#000000" font-family="sans-serif" font-size="14" lengthAdjust="spacing" textLength="39" x="144.5" y="1338.4482">Entry</text><text fill="#000000" font-family="sans-serif" font-size="14" lengthAdjust="spacing" textLength="374" x="340.5" y="1338.4482">0xF374bc9Efb4179bA2aC895d261d9bD51778e0FD7</text><rect fill="#FEFECE" height="16.2969" style="stroke:none;stroke-width:1.0;" width="667" x="54.5" y="1341.75"/><text fill="#000000" font-family="sans-serif" font-size="14" lengthAdjust="spacing" textLength="57" x="58.5" y="1354.7451">First_01</text><text fill="#000000" font-family="sans-serif" font-size="14" lengthAdjust="spacing" textLength="32" x="144.5" y="1354.7451">First</text><text fill="#000000" font-family="sans-serif" font-size="14" lengthAdjust="spacing" textLength="375" x="340.5" y="1354.7451">0xcEeB76d79a30422F61b69EeceeBfD2aA970D75dD</text><rect fill="#FEFECE" height="16.2969" style="stroke:none;stroke-width:1.0;" width="667" x="54.5" y="1358.0469"/><text fill="#000000" font-family="sans-serif" font-size="14" lengthAdjust="spacing" textLength="78" x="58.5" y="1371.042">Second_01</text><text fill="#000000" font-family="sans-serif" font-size="14" lengthAdjust="spacing" textLength="53" x="144.5" y="1371.042">Second</text><text fill="#000000" font-family="sans-serif" font-size="14" lengthAdjust="spacing" textLength="374" x="340.5" y="1371.042">0xE14CCF5f73cAD1bF35BB270634C4b9A55579282a</text><line style="stroke:#D0D000;stroke-width:1.0;" x1="54.5" x2="721.5" y1="1292.8594" y2="1292.8594"/><line style="stroke:#D0D000;stroke-width:1.0;" x1="54.5" x2="721.5" y1="1309.1563" y2="1309.1563"/><line style="stroke:#D0D000;stroke-width:1.0;" x1="54.5" x2="721.5" y1="1325.4531" y2="1325.4531"/><line style="stroke:#D0D000;stroke-width:1.0;" x1="54.5" x2="721.5" y1="1341.75" y2="1341.75"/><line style="stroke:#D0D000;stroke-width:1.0;" x1="54.5" x2="721.5" y1="1358.0469" y2="1358.0469"/><line style="stroke:#D0D000;stroke-width:1.0;" x1="54.5" x2="721.5" y1="1374.3438" y2="1374.3438"/><line style="stroke:#D0D000;stroke-width:1.0;" x1="54.5" x2="54.5" y1="1292.8594" y2="1374.3438"/><line style="stroke:#D0D000;stroke-width:1.0;" x1="140.5" x2="140.5" y1="1292.8594" y2="1374.3438"/><line style="stroke:#D0D000;stroke-width:1.0;" x1="336.5" x2="336.5" y1="1292.8594" y2="1374.3438"/><line style="stroke:#D0D000;stroke-width:1.0;" x1="721.5" x2="721.5" y1="1292.8594" y2="1374.3438"/><!--MD5=[a94bdff1344d8950c177e23c3d5c9cbc]
@startuml
autonumber
skinparam legendBackgroundColor #FEFECE

<style>
      header {
        HorizontalAlignment left
        FontColor purple
        FontSize 14
        Padding 10
      }
    </style>

header Insights by Truffle

title Txn Hash: 0xd0edab83203d630ff4036448f17450c119514e357bed40472db15612f08b2dbc


actor EOA as "EOA"
participant Entry_01 as "Entry_01"
participant First_01 as "First_01"
participant Second_01 as "Second_01"

"EOA" -> "Entry_01" ++: test_a_catch(\n<#FEFECE,#FEFECE>|= type |= name |= value |\n| uint | x | 3 |\n) { 0.0 GWEI }
"Entry_01" -> "First_01" ++: catch_revert(\n<#FEFECE,#FEFECE>|= type |= name |= value |\n| uint | x | 3 |\n) { 0.0 GWEI }
"First_01" -> "Second_01" ++: double_revert(\n<#FEFECE,#FEFECE>|= type |= name |= value |\n| uint | x | 3 |\n) { 0.0 GWEI }
"Second_01" x-[#red]-> "First_01" - -: <&warning> <color #red>**REVERT!**</color> (\n<#FEFECE,#FEFECE>| string |  | 'Rats! Conditions are imperfect |\n<#FEFECE,#FEFECE>|  |  | Im a bit sleepy...' |\n)
deactivate "Second_01"
"First_01" -> "First_01" ++: self_inc(\n<#FEFECE,#FEFECE>|= type |= name |= value |\n| uint | x | 3 |\n) { 0.0 GWEI }
"First_01" -> "First_01" - -: Return (\n<#FEFECE,#FEFECE>|= type |= name |= value |\n| uint |  | 4 |\n)
"First_01" -> "Entry_01" - -: Return (\n<#FEFECE,#FEFECE>|= type |= name |= value |\n| uint |  | 4 |\n)
"Entry_01" -> "First_01" ++: inc(\n<#FEFECE,#FEFECE>|= type |= name |= value |\n| uint | x | 4 |\n) { 0.0 GWEI }
"First_01" -> "First_01" ++: self_inc(\n<#FEFECE,#FEFECE>|= type |= name |= value |\n| uint | x | 4 |\n) { 0.0 GWEI }
"First_01" -> "First_01" - -: Return (\n<#FEFECE,#FEFECE>|= type |= name |= value |\n| uint |  | 5 |\n)
"First_01" -> "Entry_01" - -: Return (\n<#FEFECE,#FEFECE>|= type |= name |= value |\n| uint |  | 5 |\n)
"Entry_01" -> "EOA" - -: Return (\n<#FEFECE,#FEFECE>|= type |= name |= value |\n| uint |  | 5 |\n)

legend
Participant details
<#FEFECE,#D0D000>|= Alias |= Contract name |= Address |
<#FEFECE>| EOA | Externally Owned Account | 0x89455D7DA74AB68e95223838755755dFF38e5BDB |
<#FEFECE>| Entry_01 | Entry | 0xF374bc9Efb4179bA2aC895d261d9bD51778e0FD7 |
<#FEFECE>| First_01 | First | 0xcEeB76d79a30422F61b69EeceeBfD2aA970D75dD |
<#FEFECE>| Second_01 | Second | 0xE14CCF5f73cAD1bF35BB270634C4b9A55579282a |
endlegend
@enduml

PlantUML version 1.2021.2beta9(Unknown compile time)
(GPL source distribution)
Java Runtime: Java(TM) SE Runtime Environment
JVM: Java HotSpot(TM) 64-Bit Server VM
Default Encoding: UTF-8
Language: en
Country: US
--></g></svg>