<?xml version="1.0" encoding="UTF-8" standalone="no"?><svg xmlns="http://www.w3.org/2000/svg" xmlns:xlink="http://www.w3.org/1999/xlink" contentScriptType="application/ecmascript" contentStyleType="text/css" height="707px" preserveAspectRatio="none" style="width:743px;height:707px;" version="1.1" viewBox="0 0 743 707" width="743px" zoomAndPan="magnify"><defs><filter height="300%" id="foxuehj6sdorr" width="300%" x="-1" y="-1"><feGaussianBlur result="blurOut" stdDeviation="2.0"/><feColorMatrix in="blurOut" result="blurOut2" type="matrix" values="0 0 0 0 0 0 0 0 0 0 0 0 0 0 0 0 0 0 .4 0"/><feOffset dx="4.0" dy="4.0" in="blurOut2" result="blurOut3"/><feBlend in="SourceGraphic" in2="blurOut3" mode="normal"/></filter></defs><g><rect fill="none" height="26.2969" style="stroke:none;stroke-width:1.0;" width="725" x="5" y="47.2969"/><text fill="#000000" font-family="sans-serif" font-size="14" font-weight="bold" lengthAdjust="spacing" textLength="715" x="10" y="65.292">Txn Hash: 0x079abc5739a4492a88836dfedc9bf3ccad11ba0b101ccf85879002bf4602a475</text><rect fill="#FFFFFF" filter="url(#foxuehj6sdorr)" height="141.9297" style="stroke:#A80036;stroke-width:1.0;" width="10" x="354.25" y="243.4219"/><rect fill="#FFFFFF" filter="url(#foxuehj6sdorr)" height="63.3984" style="stroke:#A80036;stroke-width:1.0;" width="10" x="539.25" y="321.9531"/><line style="stroke:#A80036;stroke-width:1.0;stroke-dasharray:5.0,5.0;" x1="178.75" x2="178.75" y1="162.8906" y2="503.0156"/><line style="stroke:#A80036;stroke-width:1.0;stroke-dasharray:5.0,5.0;" x1="359.25" x2="359.25" y1="162.8906" y2="503.0156"/><line style="stroke:#A80036;stroke-width:1.0;stroke-dasharray:5.0,5.0;" x1="544.25" x2="544.25" y1="162.8906" y2="503.0156"/><text fill="#000000" font-family="sans-serif" font-size="14" lengthAdjust="spacing" textLength="29" x="161.75" y="159.5889">EOA</text><ellipse cx="179.25" cy="89.5938" fill="#FEFECE" filter="url(#foxuehj6sdorr)" rx="8" ry="8" style="stroke:#A80036;stroke-width:2.0;"/><path d="M179.25,97.5938 L179.25,124.5938 M166.25,105.5938 L192.25,105.5938 M179.25,124.5938 L166.25,139.5938 M179.25,124.5938 L192.25,139.5938 " fill="none" filter="url(#foxuehj6sdorr)" style="stroke:#A80036;stroke-width:2.0;"/><text fill="#000000" font-family="sans-serif" font-size="14" lengthAdjust="spacing" textLength="29" x="161.75" y="515.0107">EOA</text><ellipse cx="179.25" cy="528.3125" fill="#FEFECE" filter="url(#foxuehj6sdorr)" rx="8" ry="8" style="stroke:#A80036;stroke-width:2.0;"/><path d="M179.25,536.3125 L179.25,563.3125 M166.25,544.3125 L192.25,544.3125 M179.25,563.3125 L166.25,578.3125 M179.25,563.3125 L192.25,578.3125 " fill="none" filter="url(#foxuehj6sdorr)" style="stroke:#A80036;stroke-width:2.0;"/><rect fill="#FEFECE" filter="url(#foxuehj6sdorr)" height="30.2969" style="stroke:#A80036;stroke-width:1.5;" width="74" x="320.25" y="127.5938"/><text fill="#000000" font-family="sans-serif" font-size="14" lengthAdjust="spacing" textLength="60" x="327.25" y="147.5889">Entry_01</text><rect fill="#FEFECE" filter="url(#foxuehj6sdorr)" height="30.2969" style="stroke:#A80036;stroke-width:1.5;" width="74" x="320.25" y="502.0156"/><text fill="#000000" font-family="sans-serif" font-size="14" lengthAdjust="spacing" textLength="60" x="327.25" y="522.0107">Entry_01</text><rect fill="#FEFECE" filter="url(#foxuehj6sdorr)" height="30.2969" style="stroke:#A80036;stroke-width:1.5;" width="68" x="508.25" y="127.5938"/><text fill="#000000" font-family="sans-serif" font-size="14" lengthAdjust="spacing" textLength="54" x="515.25" y="147.5889">First_01</text><rect fill="#FEFECE" filter="url(#foxuehj6sdorr)" height="30.2969" style="stroke:#A80036;stroke-width:1.5;" width="68" x="508.25" y="502.0156"/><text fill="#000000" font-family="sans-serif" font-size="14" lengthAdjust="spacing" textLength="54" x="515.25" y="522.0107">First_01</text><rect fill="#FFFFFF" filter="url(#foxuehj6sdorr)" height="141.9297" style="stroke:#A80036;stroke-width:1.0;" width="10" x="354.25" y="243.4219"/><rect fill="#FFFFFF" filter="url(#foxuehj6sdorr)" height="63.3984" style="stroke:#A80036;stroke-width:1.0;" width="10" x="539.25" y="321.9531"/><polygon fill="#A80036" points="342.25,239.4219,352.25,243.4219,342.25,247.4219,346.25,243.4219" style="stroke:#A80036;stroke-width:1.0;"/><line style="stroke:#A80036;stroke-width:1.0;" x1="179.25" x2="348.25" y1="243.4219" y2="243.4219"/><text fill="#000000" font-family="sans-serif" font-size="13" font-weight="bold" lengthAdjust="spacing" textLength="9" x="186.25" y="213.6567">1</text><text fill="#000000" font-family="sans-serif" font-size="13" lengthAdjust="spacing" textLength="90" x="199.25" y="188.9575">test_a_revert(</text><rect fill="#FEFECE" height="15.1328" style="stroke:none;stroke-width:1.0;" width="143" x="199.25" y="194.0234"/><text fill="#000000" font-family="sans-serif" font-size="13" font-weight="bold" lengthAdjust="spacing" textLength="33" x="204.25" y="206.0903">type</text><text fill="#000000" font-family="sans-serif" font-size="13" font-weight="bold" lengthAdjust="spacing" textLength="41" x="247.25" y="206.0903">name</text><text fill="#000000" font-family="sans-serif" font-size="13" font-weight="bold" lengthAdjust="spacing" textLength="39" x="298.25" y="206.0903">value</text><text fill="#000000" font-family="sans-serif" font-size="13" lengthAdjust="spacing" textLength="24" x="203.25" y="221.2231">uint</text><text fill="#000000" font-family="sans-serif" font-size="13" lengthAdjust="spacing" textLength="7" x="246.25" y="221.2231">x</text><text fill="#000000" font-family="sans-serif" font-size="13" lengthAdjust="spacing" textLength="8" x="297.25" y="221.2231">9</text><line style="stroke:#FEFECE;stroke-width:1.0;" x1="199.25" x2="342.25" y1="194.0234" y2="194.0234"/><line style="stroke:#FEFECE;stroke-width:1.0;" x1="199.25" x2="342.25" y1="209.1563" y2="209.1563"/><line style="stroke:#FEFECE;stroke-width:1.0;" x1="199.25" x2="342.25" y1="224.2891" y2="224.2891"/><line style="stroke:#FEFECE;stroke-width:1.0;" x1="199.25" x2="199.25" y1="194.0234" y2="224.2891"/><line style="stroke:#FEFECE;stroke-width:1.0;" x1="242.25" x2="242.25" y1="194.0234" y2="224.2891"/><line style="stroke:#FEFECE;stroke-width:1.0;" x1="293.25" x2="293.25" y1="194.0234" y2="224.2891"/><line style="stroke:#FEFECE;stroke-width:1.0;" x1="342.25" x2="342.25" y1="194.0234" y2="224.2891"/><text fill="#000000" font-family="sans-serif" font-size="13" lengthAdjust="spacing" textLength="89" x="199.25" y="238.356">) { 0.0 GWEI }</text><polygon fill="#A80036" points="527.25,317.9531,537.25,321.9531,527.25,325.9531,531.25,321.9531" style="stroke:#A80036;stroke-width:1.0;"/><line style="stroke:#A80036;stroke-width:1.0;" x1="364.25" x2="533.25" y1="321.9531" y2="321.9531"/><text fill="#000000" font-family="sans-serif" font-size="13" font-weight="bold" lengthAdjust="spacing" textLength="9" x="371.25" y="292.188">2</text><text fill="#000000" font-family="sans-serif" font-size="13" lengthAdjust="spacing" textLength="68" x="384.25" y="267.4888">inc_revert(</text><rect fill="#FEFECE" height="15.1328" style="stroke:none;stroke-width:1.0;" width="143" x="384.25" y="272.5547"/><text fill="#000000" font-family="sans-serif" font-size="13" font-weight="bold" lengthAdjust="spacing" textLength="33" x="389.25" y="284.6216">type</text><text fill="#000000" font-family="sans-serif" font-size="13" font-weight="bold" lengthAdjust="spacing" textLength="41" x="432.25" y="284.6216">name</text><text fill="#000000" font-family="sans-serif" font-size="13" font-weight="bold" lengthAdjust="spacing" textLength="39" x="483.25" y="284.6216">value</text><text fill="#000000" font-family="sans-serif" font-size="13" lengthAdjust="spacing" textLength="24" x="388.25" y="299.7544">uint</text><text fill="#000000" font-family="sans-serif" font-size="13" lengthAdjust="spacing" textLength="7" x="431.25" y="299.7544">x</text><text fill="#000000" font-family="sans-serif" font-size="13" lengthAdjust="spacing" textLength="8" x="482.25" y="299.7544">9</text><line style="stroke:#FEFECE;stroke-width:1.0;" x1="384.25" x2="527.25" y1="272.5547" y2="272.5547"/><line style="stroke:#FEFECE;stroke-width:1.0;" x1="384.25" x2="527.25" y1="287.6875" y2="287.6875"/><line style="stroke:#FEFECE;stroke-width:1.0;" x1="384.25" x2="527.25" y1="302.8203" y2="302.8203"/><line style="stroke:#FEFECE;stroke-width:1.0;" x1="384.25" x2="384.25" y1="272.5547" y2="302.8203"/><line style="stroke:#FEFECE;stroke-width:1.0;" x1="427.25" x2="427.25" y1="272.5547" y2="302.8203"/><line style="stroke:#FEFECE;stroke-width:1.0;" x1="478.25" x2="478.25" y1="272.5547" y2="302.8203"/><line style="stroke:#FEFECE;stroke-width:1.0;" x1="527.25" x2="527.25" y1="272.5547" y2="302.8203"/><text fill="#000000" font-family="sans-serif" font-size="13" lengthAdjust="spacing" textLength="89" x="384.25" y="316.8872">) { 0.0 GWEI }</text><polygon fill="#FF0000" points="190.25,381.3516,180.25,385.3516,190.25,389.3516,186.25,385.3516" style="stroke:#FF0000;stroke-width:1.0;"/><line style="stroke:#FF0000;stroke-width:2.0;" x1="526.25" x2="536.25" y1="380.3516" y2="390.3516"/><line style="stroke:#FF0000;stroke-width:2.0;" x1="526.25" x2="536.25" y1="390.3516" y2="380.3516"/><line style="stroke:#FF0000;stroke-width:1.0;stroke-dasharray:2.0,2.0;" x1="184.25" x2="531.25" y1="385.3516" y2="385.3516"/><text fill="#000000" font-family="sans-serif" font-size="13" font-weight="bold" lengthAdjust="spacing" textLength="9" x="196.25" y="363.1528">3</text><path d="M213.5975,337.1693 C213.5325,337.1693 213.4892,337.2126 213.4567,337.2668 L210.2717,344.6443 C210.25,344.6984 210.2392,344.7851 210.2392,344.8501 L210.2392,345.7276 C210.2392,345.7818 210.2825,345.8251 210.3367,345.8251 L217.7142,345.8251 C217.7683,345.8251 217.8117,345.7818 217.8117,345.7276 L217.8117,344.8501 C217.8117,344.7959 217.8008,344.6984 217.7792,344.6443 L214.5942,337.2668 C214.5725,337.2126 214.5183,337.1693 214.4533,337.1693 L213.5758,337.1693 M213.4783,340.4193 L214.5617,340.4193 L214.5617,342.5859 L213.4783,342.5859 L213.4783,340.4193 M213.4783,343.6693 L214.5617,343.6693 L214.5617,344.7526 L213.4783,344.7526 L213.4783,343.6693 " fill="#000000" style="stroke:;stroke-width:0.0;stroke-dasharray:;"/><text fill="#000000" font-family="sans-serif" font-size="13" lengthAdjust="spacing" textLength="0" x="223.9167" y="346.02"/><text fill="#FF0000" font-family="sans-serif" font-size="13" font-weight="bold" lengthAdjust="spacing" textLength="62" x="223.9167" y="346.02">REVERT!</text><text fill="#000000" font-family="sans-serif" font-size="13" lengthAdjust="spacing" textLength="5" x="289.9167" y="346.02">(</text><rect fill="#FEFECE" height="15.1328" style="stroke:none;stroke-width:1.0;" width="104" x="209.25" y="351.0859"/><text fill="#000000" font-family="sans-serif" font-size="13" lengthAdjust="spacing" textLength="36" x="213.25" y="363.1528">string</text><text fill="#000000" font-family="sans-serif" font-size="13" lengthAdjust="spacing" textLength="0" x="261.25" y="363.1528"/><text fill="#000000" font-family="sans-serif" font-size="13" lengthAdjust="spacing" textLength="44" x="265.25" y="363.1528">'drats!'</text><line style="stroke:#FEFECE;stroke-width:1.0;" x1="209.25" x2="313.25" y1="351.0859" y2="351.0859"/><line style="stroke:#FEFECE;stroke-width:1.0;" x1="209.25" x2="313.25" y1="366.2188" y2="366.2188"/><line style="stroke:#FEFECE;stroke-width:1.0;" x1="209.25" x2="209.25" y1="351.0859" y2="366.2188"/><line style="stroke:#FEFECE;stroke-width:1.0;" x1="253.25" x2="253.25" y1="351.0859" y2="366.2188"/><line style="stroke:#FEFECE;stroke-width:1.0;" x1="261.25" x2="261.25" y1="351.0859" y2="366.2188"/><line style="stroke:#FEFECE;stroke-width:1.0;" x1="313.25" x2="313.25" y1="351.0859" y2="366.2188"/><text fill="#000000" font-family="sans-serif" font-size="13" lengthAdjust="spacing" textLength="5" x="209.25" y="380.2856">)</text><path d="M155.75,398.3516 L155.75,483.3516 L568.75,483.3516 L568.75,408.3516 L558.75,398.3516 L155.75,398.3516 " fill="#45FF00" filter="url(#foxuehj6sdorr)" style="stroke:#A80036;stroke-width:1.0;"/><path d="M558.75,398.3516 L558.75,408.3516 L568.75,408.3516 L558.75,398.3516 " fill="#45FF00" style="stroke:#A80036;stroke-width:1.0;"/><text fill="#000000" font-family="sans-serif" font-size="13" lengthAdjust="spacing" textLength="373" x="167.5" y="415.4185">ETH-less (msg.value == 0) transactions should not revert.</text><text fill="#000000" font-family="sans-serif" font-size="13" lengthAdjust="spacing" textLength="182" x="167.5" y="430.5513">let's add a test case for this!</text><text fill="#000000" font-family="sans-serif" font-size="13" lengthAdjust="spacing" textLength="0" x="171.5" y="445.6841"/><text fill="#000000" font-family="sans-serif" font-size="13" lengthAdjust="spacing" textLength="38" x="167.5" y="460.8169">..zeke</text><text fill="#000000" font-family="sans-serif" font-size="13" lengthAdjust="spacing" textLength="0" x="171.5" y="475.9497"/><rect fill="none" height="36.2969" style="stroke:none;stroke-width:1.0;" width="141" x="0" y="5"/><text fill="#800080" font-family="sans-serif" font-size="14" lengthAdjust="spacing" textLength="121" x="10" y="27.9951">Insights by Truffle</text><rect fill="#DDDDDD" height="97.4844" rx="7.5" ry="7.5" style="stroke:#000000;stroke-width:1.0;" width="658" x="38.5" y="594.3125"/><text fill="#000000" font-family="sans-serif" font-size="14" lengthAdjust="spacing" textLength="121" x="44.5" y="613.3076">Participant details</text><rect fill="#FEFECE" height="16.2969" style="stroke:none;stroke-width:1.0;" width="646" x="44.5" y="618.6094"/><text fill="#000000" font-family="sans-serif" font-size="14" font-weight="bold" lengthAdjust="spacing" textLength="37" x="49.5" y="631.6045">Alias</text><text fill="#000000" font-family="sans-serif" font-size="14" font-weight="bold" lengthAdjust="spacing" textLength="116" x="117.5" y="631.6045">Contract name</text><text fill="#000000" font-family="sans-serif" font-size="14" font-weight="bold" lengthAdjust="spacing" textLength="66" x="304.5" y="631.6045">Address</text><rect fill="#FEFECE" height="16.2969" style="stroke:none;stroke-width:1.0;" width="646" x="44.5" y="634.9063"/><text fill="#000000" font-family="sans-serif" font-size="14" lengthAdjust="spacing" textLength="29" x="48.5" y="647.9014">EOA</text><text fill="#000000" font-family="sans-serif" font-size="14" lengthAdjust="spacing" textLength="179" x="116.5" y="647.9014">Externally Owned Account</text><text fill="#000000" font-family="sans-serif" font-size="14" lengthAdjust="spacing" textLength="383" x="303.5" y="647.9014">0x89455D7DA74AB68e95223838755755dFF38e5BDB</text><rect fill="#FEFECE" height="16.2969" style="stroke:none;stroke-width:1.0;" width="646" x="44.5" y="651.2031"/><text fill="#000000" font-family="sans-serif" font-size="14" lengthAdjust="spacing" textLength="60" x="48.5" y="664.1982">Entry_01</text><text fill="#000000" font-family="sans-serif" font-size="14" lengthAdjust="spacing" textLength="35" x="116.5" y="664.1982">Entry</text><text fill="#000000" font-family="sans-serif" font-size="14" lengthAdjust="spacing" textLength="372" x="303.5" y="664.1982">0xF374bc9Efb4179bA2aC895d261d9bD51778e0FD7</text><rect fill="#FEFECE" height="16.2969" style="stroke:none;stroke-width:1.0;" width="646" x="44.5" y="667.5"/><text fill="#000000" font-family="sans-serif" font-size="14" lengthAdjust="spacing" textLength="54" x="48.5" y="680.4951">First_01</text><text fill="#000000" font-family="sans-serif" font-size="14" lengthAdjust="spacing" textLength="29" x="116.5" y="680.4951">First</text><text fill="#000000" font-family="sans-serif" font-size="14" lengthAdjust="spacing" textLength="374" x="303.5" y="680.4951">0xcEeB76d79a30422F61b69EeceeBfD2aA970D75dD</text><line style="stroke:#D0D000;stroke-width:1.0;" x1="44.5" x2="690.5" y1="618.6094" y2="618.6094"/><line style="stroke:#D0D000;stroke-width:1.0;" x1="44.5" x2="690.5" y1="634.9063" y2="634.9063"/><line style="stroke:#D0D000;stroke-width:1.0;" x1="44.5" x2="690.5" y1="651.2031" y2="651.2031"/><line style="stroke:#D0D000;stroke-width:1.0;" x1="44.5" x2="690.5" y1="667.5" y2="667.5"/><line style="stroke:#D0D000;stroke-width:1.0;" x1="44.5" x2="690.5" y1="683.7969" y2="683.7969"/><line style="stroke:#D0D000;stroke-width:1.0;" x1="44.5" x2="44.5" y1="618.6094" y2="683.7969"/><line style="stroke:#D0D000;stroke-width:1.0;" x1="112.5" x2="112.5" y1="618.6094" y2="683.7969"/><line style="stroke:#D0D000;stroke-width:1.0;" x1="299.5" x2="299.5" y1="618.6094" y2="683.7969"/><line style="stroke:#D0D000;stroke-width:1.0;" x1="690.5" x2="690.5" y1="618.6094" y2="683.7969"/><!--MD5=[e2e448bdc151e5be5927c7b805ba0e90]
@startuml
autonumber
skinparam legendBackgroundColor #FEFECE

<style>
      header {
        HorizontalAlignment left
        FontColor purple
        FontSize 14
        Padding 10
      }
    </style>

header Insights by Truffle

title Txn Hash: 0x079abc5739a4492a88836dfedc9bf3ccad11ba0b101ccf85879002bf4602a475


actor EOA as "EOA"
participant Entry_01 as "Entry_01"
participant First_01 as "First_01"

"EOA" -> "Entry_01" ++: test_a_revert(\n<#FEFECE,#FEFECE>|= type |= name |= value |\n| uint | x | 9 |\n) { 0.0 GWEI }
"Entry_01" -> "First_01" ++: inc_revert(\n<#FEFECE,#FEFECE>|= type |= name |= value |\n| uint | x | 9 |\n) { 0.0 GWEI }

"First_01" x-[#red]-> "EOA" - -: <&warning> <color #red>**REVERT!**</color> (\n<#FEFECE,#FEFECE>| string |  | 'drats!' |\n)
note over EOA, First_01 #45ff00
ETH-less (msg.value == 0) transactions should not revert. 
let's add a test case for this!

..zeke

end note
deactivate "First_01"
deactivate "Entry_01"

legend
Participant details
<#FEFECE,#D0D000>|= Alias |= Contract name |= Address |
<#FEFECE>| EOA | Externally Owned Account | 0x89455D7DA74AB68e95223838755755dFF38e5BDB |
<#FEFECE>| Entry_01 | Entry | 0xF374bc9Efb4179bA2aC895d261d9bD51778e0FD7 |
<#FEFECE>| First_01 | First | 0xcEeB76d79a30422F61b69EeceeBfD2aA970D75dD |
endlegend
@enduml

PlantUML version 1.2021.00(Sun Jan 10 10:25:05 UTC 2021)
(GPL source distribution)
Java Runtime: OpenJDK Runtime Environment
JVM: OpenJDK 64-Bit Server VM
Default Encoding: UTF-8
Language: en
Country: null
--></g></svg>